<svg id="Capa_1" data-name="Capa 1" xmlns="http://www.w3.org/2000/svg" viewBox="0 0 487.63 558"><defs><style>.cls-1{fill:#fcfcfc;}</style></defs><title>curved-right-white-arrow</title><path class="cls-1" d="M246,1.32c-4.22-2.81-7.63-1-7.63,4.09V83.33a11.1,11.1,0,0,1-9.08,10.55c-110.11,18.9-194.13,115-194.13,230.38C35.18,453.14,140,558,268.92,558h21.45a9.19,9.19,0,0,0,9.19-9.18l0-42.31a9.52,9.52,0,0,0-9.17-9.47L270,496.38C213,494.57,168.39,448.71,168.39,392a104.55,104.55,0,0,1,61.47-95.15c4.62-2.09,8.52.71,8.52,5.78v69.65c0,5.07,3.42,6.9,7.64,4.09L286,349.71,489.1,214.29l30.55-20.37c4.22-2.81,4.22-7.37,0-10.18L489.1,163.37,286,27.94Z" transform="translate(-35.18 0)"/></svg>