<?xml version="1.0" encoding="iso-8859-1"?>
<!-- Generator: Adobe Illustrator 16.0.0, SVG Export Plug-In . SVG Version: 6.00 Build 0)  -->
<!DOCTYPE svg PUBLIC "-//W3C//DTD SVG 1.1//EN" "http://www.w3.org/Graphics/SVG/1.1/DTD/svg11.dtd">
<svg version="1.1" id="Capa_1" xmlns="http://www.w3.org/2000/svg" xmlns:xlink="http://www.w3.org/1999/xlink" x="0px" y="0px"
	 width="557.996px" height="557.995px" viewBox="0 0 557.996 557.995" style="enable-background:new 0 0 557.996 557.995;"
	 xml:space="preserve">
<g>
	<g>
		<path d="M246.024,1.319c-4.22-2.812-7.638-0.981-7.638,4.089v47.996v29.927c0,5.07-4.079,9.697-9.076,10.554
			c-110.105,18.893-194.13,115.007-194.13,230.372c0,128.884,104.857,233.738,233.745,233.738h21.447c5.07,0,9.184-4.11,9.188-9.181
			l0.023-42.311c0.004-5.07-4.104-9.312-9.17-9.471l-20.454-0.651c-56.953-1.812-101.567-47.675-101.567-104.413
			c0-27.372,10.511-53.22,29.596-72.782c9.269-9.502,20.077-17.035,31.876-22.366c4.621-2.087,8.519,0.707,8.519,5.777v21.659
			v47.996c0,5.07,3.421,6.9,7.638,4.088l39.937-26.625L489.095,214.29l30.555-20.367c4.219-2.812,4.219-7.372,0-10.185
			l-30.555-20.367L285.958,27.945L246.024,1.319z"/>
	</g>
</g>
<g>
</g>
<g>
</g>
<g>
</g>
<g>
</g>
<g>
</g>
<g>
</g>
<g>
</g>
<g>
</g>
<g>
</g>
<g>
</g>
<g>
</g>
<g>
</g>
<g>
</g>
<g>
</g>
<g>
</g>
</svg>
